<?xml version="1.0" encoding="UTF-8" standalone="no"?>
<svg
   width="820"
   height="200"
   viewBox="0 0 820 200"
   role="img"
   aria-labelledby="title desc"
   version="1.1"
   id="svg2"
   xmlns="http://www.w3.org/2000/svg"
   xmlns:svg="http://www.w3.org/2000/svg">
  <defs
     id="defs2" />
  <title
     id="title">QuireForge wordmark</title>
  <desc
     id="desc">The QuireForge name with Forge set in forge orange.</desc>
  <g
     id="wordmark"
     style="fill:#1b2130"
     aria-label="QuireForge">
    <path
       d="m 117.224,98.016 q 0,17.76 -6.364,30.784 -6.364,12.876 -19.684,18.944 l 25.456,28.416 H 87.92 L 68.532,152.48 h -1.628 q -17.168,0 -28.416,-6.808 -11.1,-6.808 -16.576,-19.092 -5.328,-12.284 -5.328,-28.712 0,-16.428 5.328,-28.564 Q 27.388,57.168 38.488,50.508 49.736,43.7 67.052,43.7 q 17.168,0 28.268,6.808 11.1,6.66 16.428,18.944 5.476,12.136 5.476,28.564 z m -77.108,0 q 0,16.576 6.364,26.196 6.364,9.472 20.424,9.472 14.356,0 20.572,-9.472 6.216,-9.62 6.216,-26.196 0,-16.724 -6.216,-26.196 -6.216,-9.472 -20.424,-9.472 -14.208,0 -20.572,9.472 -6.364,9.472 -6.364,26.196 z M 206.49993,70.192 V 151 h -16.872 l -2.96,-10.36 h -1.184 q -3.848,6.216 -10.656,9.028 -6.66,2.812 -14.208,2.812 -13.024,0 -20.868,-6.956 -7.844,-7.104 -7.844,-22.644 V 70.192 h 22.052 v 47.212 q 0,8.584 3.108,13.024 3.108,4.44 9.916,4.44 10.064,0 13.764,-6.808 3.7,-6.956 3.7,-19.832 V 70.192 Z M 235.68787,38.52 q 4.884,0 8.436,2.368 3.552,2.22 3.552,8.436 0,6.068 -3.552,8.436 -3.552,2.368 -8.436,2.368 -5.032,0 -8.584,-2.368 -3.404,-2.368 -3.404,-8.436 0,-6.216 3.404,-8.436 3.552,-2.368 8.584,-2.368 z m 10.952,31.672 V 151 h -22.052 V 70.192 Z m 63.22804,-1.48 q 1.628,0 3.848,0.148 2.22,0.148 3.552,0.444 l -1.628,20.72 q -1.036,-0.296 -3.108,-0.444 -1.924,-0.296 -3.404,-0.296 -5.624,0 -10.804,2.072 -5.18,1.924 -8.436,6.364 -3.108,4.44 -3.108,12.136 V 151 h -22.052 V 70.192 h 16.724 l 3.256,13.616 h 1.036 q 3.552,-6.216 9.768,-10.656 6.216,-4.44 14.356,-4.44 z m 47.39201,0 q 16.724,0 26.492,9.62 9.768,9.472 9.768,27.084 v 10.656 h -52.096 q 0.296,9.324 5.476,14.652 5.328,5.328 14.652,5.328 7.844,0 14.208,-1.48 6.364,-1.628 13.172,-4.884 v 17.02 q -5.92,2.96 -12.58,4.292 -6.512,1.48 -15.836,1.48 -12.136,0 -21.46,-4.44 -9.324,-4.588 -14.652,-13.764 -5.328,-9.176 -5.328,-23.088 0,-14.208 4.736,-23.532 4.884,-9.472 13.468,-14.208 8.584,-4.736 19.98,-4.736 z m 0.148,15.688 q -6.364,0 -10.656,4.144 -4.144,4.144 -4.884,12.876 h 30.932 q -0.148,-7.4 -3.848,-12.136 -3.7,-4.884 -11.544,-4.884 z"
       id="path2" />
    <path
       style="fill:#e45b2b"
       d="m 430.25585,151 h -22.052 V 45.328 h 60.532 V 63.68 h -38.48 v 27.232 h 35.816 v 18.352 h -35.816 z m 125.83198,-40.552 q 0,20.128 -10.656,31.08 -10.508,10.952 -28.712,10.952 -11.248,0 -20.128,-4.884 -8.732,-4.884 -13.764,-14.208 -5.032,-9.472 -5.032,-22.94 0,-20.128 10.508,-30.932 10.508,-10.804 28.86,-10.804 11.396,0 20.128,4.884 8.732,4.884 13.764,14.208 5.032,9.176 5.032,22.644 z m -55.796,0 q 0,11.988 3.848,18.204 3.996,6.068 12.876,6.068 8.732,0 12.58,-6.068 3.996,-6.216 3.996,-18.204 0,-11.988 -3.996,-17.908 -3.848,-6.068 -12.728,-6.068 -8.732,0 -12.728,6.068 -3.848,5.92 -3.848,17.908 z M 614.43174,68.712 q 1.628,0 3.848,0.148 2.22,0.148 3.552,0.444 l -1.628,20.72 q -1.036,-0.296 -3.108,-0.444 -1.924,-0.296 -3.404,-0.296 -5.624,0 -10.804,2.072 -5.18,1.924 -8.436,6.364 -3.108,4.44 -3.108,12.136 V 151 h -22.052 V 70.192 h 16.724 l 3.256,13.616 h 1.036 q 3.552,-6.216 9.768,-10.656 6.216,-4.44 14.356,-4.44 z m 41.76804,0 q 14.948,0 23.384,11.84 h 0.592 l 1.776,-10.36 h 18.648 v 80.956 q 0,17.316 -10.212,26.344 -10.212,9.028 -30.192,9.028 -8.584,0 -15.984,-1.036 -7.252,-1.036 -14.208,-3.7 v -17.612 q 14.948,6.216 31.524,6.216 17.02,0 17.02,-18.352 v -1.628 q 0,-2.516 0.148,-5.18 0.296,-2.664 0.444,-4.736 h -0.592 q -4.144,6.364 -9.916,9.176 -5.772,2.812 -13.024,2.812 -14.356,0 -22.496,-10.952 -7.992,-11.1 -7.992,-30.784 0,-19.832 8.288,-30.932 8.288,-11.1 22.792,-11.1 z m 6.956,17.908 q -15.54,0 -15.54,24.42 0,24.124 15.836,24.124 8.436,0 12.432,-4.736 4.144,-4.884 4.144,-16.872 v -2.664 q 0,-13.024 -3.996,-18.648 -3.996,-5.624 -12.876,-5.624 z m 88.8319,-17.908 q 16.724,0 26.492,9.62 9.768,9.472 9.768,27.084 v 10.656 h -52.096 q 0.296,9.324 5.476,14.652 5.328,5.328 14.652,5.328 7.844,0 14.208,-1.48 6.364,-1.628 13.172,-4.884 v 17.02 q -5.92,2.96 -12.58,4.292 -6.512,1.48 -15.836,1.48 -12.136,0 -21.46,-4.44 -9.324,-4.588 -14.652,-13.764 -5.328,-9.176 -5.328,-23.088 0,-14.208 4.736,-23.532 4.884,-9.472 13.468,-14.208 8.584,-4.736 19.98,-4.736 z m 0.148,15.688 q -6.364,0 -10.656,4.144 -4.144,4.144 -4.884,12.876 h 30.932 q -0.148,-7.4 -3.848,-12.136 -3.7,-4.884 -11.544,-4.884 z"
       id="path3" />
  </g>
</svg>
