<?xml version="1.0" encoding="UTF-8" standalone="no"?>
<svg
   width="1200"
   height="630"
   viewBox="0 0 1200 630"
   role="img"
   aria-labelledby="title desc"
   version="1.1"
   id="svg6"
   xmlns="http://www.w3.org/2000/svg"
   xmlns:svg="http://www.w3.org/2000/svg">
  <defs
     id="defs6" />
  <title
     id="title">QuireForge social card</title>
  <desc
     id="desc">QuireForge branding with the tagline Build boldly. Work locally.</desc>
  <rect
     width="1200"
     height="630"
     fill="#111620"
     id="rect1" />
  <path
     d="M0 486 282 204 506 428 934 0h266v630H0Z"
     fill="#171E2C"
     id="path1" />
  <path
     d="M771 2 498 275M919 2 572 349M1067 2 646 423"
     fill="none"
     stroke="#273044"
     stroke-width="2"
     id="path2" />
  <g
     transform="translate(72 92) scale(.6640625)"
     id="g5">
    <path
       fill="#F6F1E7"
       fill-rule="evenodd"
       d="M152 32h208l120 120v208l-58 58 58 58-62 36-70-70-54 38H152L32 360V152L152 32Zm18 118v162l86 32 86-32V150l-86 26-86-26Z"
       id="path3" />
    <path
       fill="#FF7142"
       d="m274 306 206 170-62 36-170-162 26-44Z"
       id="path4" />
    <path
       fill="#FF7142"
       d="m256 176 18-5v135l-18 38V176Z"
       id="path5" />
  </g>
  <g
     id="social-wordmark"
     style="fill:#f6f1e7"
     aria-label="QuireForge">
    <path
       d="m 541.752,206.768 q 0,12.48 -4.472,21.632 -4.472,9.048 -13.832,13.312 l 17.888,19.968 H 521.16 l -13.624,-16.64 h -1.144 q -12.064,0 -19.968,-4.784 -7.8,-4.784 -11.648,-13.416 -3.744,-8.632 -3.744,-20.176 0,-11.544 3.744,-20.072 3.848,-8.528 11.648,-13.208 7.904,-4.784 20.072,-4.784 12.064,0 19.864,4.784 7.8,4.68 11.544,13.312 3.848,8.528 3.848,20.072 z m -54.184,0 q 0,11.648 4.472,18.408 4.472,6.656 14.352,6.656 10.088,0 14.456,-6.656 4.368,-6.76 4.368,-18.408 0,-11.752 -4.368,-18.408 -4.368,-6.656 -14.352,-6.656 -9.984,0 -14.456,6.656 -4.472,6.656 -4.472,18.408 z M 603.99995,187.216 V 244 h -11.856 l -2.08,-7.28 h -0.832 q -2.704,4.368 -7.488,6.344 -4.68,1.976 -9.984,1.976 -9.152,0 -14.664,-4.888 -5.512,-4.992 -5.512,-15.912 v -37.024 h 15.496 v 33.176 q 0,6.032 2.184,9.152 2.184,3.12 6.968,3.12 7.072,0 9.672,-4.784 2.6,-4.888 2.6,-13.936 v -26.728 z m 20.02396,-22.256 q 3.432,0 5.928,1.664 2.496,1.56 2.496,5.928 0,4.264 -2.496,5.928 -2.496,1.664 -5.928,1.664 -3.536,0 -6.032,-1.664 -2.392,-1.664 -2.392,-5.928 0,-4.368 2.392,-5.928 2.496,-1.664 6.032,-1.664 z m 7.696,22.256 V 244 h -15.496 v -56.784 z m 43.94403,-1.04 q 1.144,0 2.704,0.104 1.56,0.104 2.496,0.312 l -1.144,14.56 q -0.728,-0.208 -2.184,-0.312 -1.352,-0.208 -2.392,-0.208 -3.952,0 -7.592,1.456 -3.64,1.352 -5.928,4.472 -2.184,3.12 -2.184,8.528 V 244 h -15.496 v -56.784 h 11.752 l 2.288,9.568 h 0.728 q 2.496,-4.368 6.864,-7.488 4.368,-3.12 10.088,-3.12 z m 32.816,0 q 11.752,0 18.616,6.76 6.864,6.656 6.864,19.032 v 7.488 h -36.608 q 0.208,6.552 3.848,10.296 3.744,3.744 10.296,3.744 5.512,0 9.984,-1.04 4.472,-1.144 9.256,-3.432 v 11.96 q -4.16,2.08 -8.84,3.016 -4.576,1.04 -11.128,1.04 -8.528,0 -15.08,-3.12 -6.552,-3.224 -10.296,-9.672 -3.744,-6.448 -3.744,-16.224 0,-9.984 3.328,-16.536 3.432,-6.656 9.464,-9.984 6.032,-3.328 14.04,-3.328 z m 0.104,11.024 q -4.472,0 -7.488,2.912 -2.912,2.912 -3.432,9.048 h 21.736 q -0.104,-5.2 -2.704,-8.528 -2.6,-3.432 -8.112,-3.432 z"
       id="path6" />
    <path
       style="fill:#ff7142"
       d="m 759.28788,244 h -15.496 v -74.256 h 42.536 v 12.896 h -27.04 v 19.136 h 25.168 v 12.896 h -25.168 z m 87.93601,-28.496 q 0,14.144 -7.488,21.84 -7.384,7.696 -20.176,7.696 -7.904,0 -14.144,-3.432 -6.136,-3.432 -9.672,-9.984 -3.536,-6.656 -3.536,-16.12 0,-14.144 7.384,-21.736 7.384,-7.592 20.28,-7.592 8.008,0 14.144,3.432 6.136,3.432 9.672,9.984 3.536,6.448 3.536,15.912 z m -39.208,0 q 0,8.424 2.704,12.792 2.808,4.264 9.048,4.264 6.136,0 8.84,-4.264 2.808,-4.368 2.808,-12.792 0,-8.424 -2.808,-12.584 -2.704,-4.264 -8.944,-4.264 -6.136,0 -8.944,4.264 -2.704,4.16 -2.704,12.584 z m 79.71992,-29.328 q 1.144,0 2.704,0.104 1.56,0.104 2.496,0.312 l -1.144,14.56 q -0.728,-0.208 -2.184,-0.312 -1.352,-0.208 -2.392,-0.208 -3.952,0 -7.592,1.456 -3.64,1.352 -5.928,4.472 -2.184,3.12 -2.184,8.528 V 244 h -15.496 v -56.784 h 11.752 l 2.288,9.568 h 0.728 q 2.496,-4.368 6.864,-7.488 4.368,-3.12 10.088,-3.12 z m 28.86402,0 q 10.504,0 16.432,8.32 h 0.416 l 1.248,-7.28 h 13.104 v 56.888 q 0,12.168 -7.176,18.512 -7.176,6.344 -21.216,6.344 -6.032,0 -11.232,-0.728 -5.096,-0.728 -9.984,-2.6 v -12.376 q 10.504,4.368 22.152,4.368 11.96,0 11.96,-12.896 v -1.144 q 0,-1.768 0.104,-3.64 0.208,-1.872 0.312,-3.328 h -0.416 q -2.912,4.472 -6.968,6.448 -4.056,1.976 -9.152,1.976 -10.088,0 -15.808,-7.696 -5.616,-7.8 -5.616,-21.632 0,-13.936 5.824,-21.736 5.824,-7.8 16.016,-7.8 z m 4.888,12.584 q -10.92,0 -10.92,17.16 0,16.952 11.128,16.952 5.928,0 8.736,-3.328 2.912,-3.432 2.912,-11.856 v -1.872 q 0,-9.152 -2.808,-13.104 -2.808,-3.952 -9.048,-3.952 z m 61.93597,-12.584 q 11.752,0 18.616,6.76 6.864,6.656 6.864,19.032 v 7.488 h -36.608 q 0.208,6.552 3.848,10.296 3.744,3.744 10.296,3.744 5.512,0 9.984,-1.04 4.472,-1.144 9.256,-3.432 v 11.96 q -4.16,2.08 -8.84,3.016 -4.576,1.04 -11.128,1.04 -8.528,0 -15.08,-3.12 -6.552,-3.224 -10.296,-9.672 -3.744,-6.448 -3.744,-16.224 0,-9.984 3.328,-16.536 3.432,-6.656 9.464,-9.984 6.032,-3.328 14.04,-3.328 z m 0.104,11.024 q -4.472,0 -7.488,2.912 -2.912,2.912 -3.432,9.048 h 21.736 q -0.104,-5.2 -2.704,-8.528 -2.6,-3.432 -8.112,-3.432 z"
       id="path7" />
  </g>
  <path
     d="m 481.438,298.868 q 5.092,0 7.676,1.52 2.622,1.482 2.622,5.206 0,2.394 -1.33,3.99 -1.33,1.558 -3.838,2.014 v 0.19 q 1.71,0.266 3.078,0.988 1.406,0.722 2.204,2.052 0.798,1.33 0.798,3.458 0,3.686 -2.546,5.7 -2.508,2.014 -6.878,2.014 h -9.538 v -27.132 z m 0.684,11.552 q 3.496,0 4.788,-1.102 1.292,-1.14 1.292,-3.344 0,-2.242 -1.596,-3.192 -1.558,-0.988 -5.016,-0.988 h -4.484 v 8.626 z m -5.016,2.85 v 9.842 h 5.472 q 3.61,0 5.016,-1.406 Q 489,320.3 489,318.02 q 0,-2.128 -1.482,-3.42 -1.444,-1.33 -5.206,-1.33 z m 38.64798,-7.638 V 326 h -2.736 l -0.494,-2.698 h -0.152 q -0.988,1.596 -2.736,2.356 -1.748,0.722 -3.724,0.722 -3.686,0 -5.548,-1.748 -1.862,-1.786 -1.862,-5.662 v -13.338 h 3.382 v 13.11 q 0,4.864 4.522,4.864 3.382,0 4.674,-1.9 1.33,-1.9 1.33,-5.472 v -10.602 z m 8.97001,-7.638 q 0.76,0 1.33,0.532 0.608,0.494 0.608,1.596 0,1.064 -0.608,1.596 -0.57,0.532 -1.33,0.532 -0.836,0 -1.406,-0.532 -0.57,-0.532 -0.57,-1.596 0,-1.102 0.57,-1.596 0.57,-0.532 1.406,-0.532 z m 1.634,7.638 V 326 h -3.344 V 305.632 Z M 536.96197,326 h -3.344 v -28.88 h 3.344 z m 14.47997,0.38 q -3.8,0 -6.08,-2.622 -2.28,-2.66 -2.28,-7.904 0,-5.244 2.28,-7.904 2.318,-2.698 6.118,-2.698 2.356,0 3.838,0.874 1.52,0.874 2.47,2.128 h 0.228 q -0.038,-0.494 -0.152,-1.444 -0.076,-0.988 -0.076,-1.558 v -8.132 h 3.344 V 326 h -2.698 l -0.494,-2.736 h -0.152 q -0.912,1.292 -2.432,2.204 -1.52,0.912 -3.914,0.912 z m 0.532,-2.774 q 3.23,0 4.522,-1.748 1.33,-1.786 1.33,-5.358 v -0.608 q 0,-3.8 -1.254,-5.814 -1.254,-2.052 -4.636,-2.052 -2.698,0 -4.066,2.166 -1.33,2.128 -1.33,5.738 0,3.648 1.33,5.662 1.368,2.014 4.104,2.014 z m 30.442,-19.456 q 0,1.292 -0.076,2.432 -0.038,1.102 -0.114,1.748 h 0.19 q 0.874,-1.292 2.394,-2.166 1.52,-0.874 3.914,-0.874 3.8,0 6.08,2.66 2.318,2.622 2.318,7.866 0,5.244 -2.318,7.904 -2.318,2.66 -6.08,2.66 -2.394,0 -3.914,-0.874 -1.52,-0.874 -2.394,-2.09 h -0.266 l -0.684,2.584 h -2.394 v -28.88 h 3.344 z m 5.738,3.914 q -3.23,0 -4.484,1.862 -1.254,1.862 -1.254,5.776 v 0.152 q 0,3.762 1.216,5.776 1.254,1.976 4.598,1.976 2.736,0 4.066,-2.014 1.368,-2.014 1.368,-5.814 0,-7.714 -5.51,-7.714 z m 32.79599,7.714 q 0,5.054 -2.584,7.828 -2.546,2.774 -6.916,2.774 -2.698,0 -4.826,-1.216 -2.09,-1.254 -3.306,-3.61 -1.216,-2.394 -1.216,-5.776 0,-5.054 2.546,-7.79 2.546,-2.736 6.916,-2.736 2.774,0 4.864,1.254 2.128,1.216 3.306,3.572 1.216,2.318 1.216,5.7 z m -15.39,0 q 0,3.61 1.406,5.738 1.444,2.09 4.56,2.09 3.078,0 4.522,-2.09 1.444,-2.128 1.444,-5.738 0,-3.61 -1.444,-5.662 -1.444,-2.052 -4.56,-2.052 -3.116,0 -4.522,2.052 -1.406,2.052 -1.406,5.662 z M 630.37591,326 h -3.344 v -28.88 h 3.344 z m 14.47999,0.38 q -3.8,0 -6.08,-2.622 -2.28,-2.66 -2.28,-7.904 0,-5.244 2.28,-7.904 2.318,-2.698 6.118,-2.698 2.356,0 3.838,0.874 1.52,0.874 2.47,2.128 h 0.228 q -0.038,-0.494 -0.152,-1.444 -0.076,-0.988 -0.076,-1.558 v -8.132 h 3.344 V 326 h -2.698 l -0.494,-2.736 h -0.152 q -0.912,1.292 -2.432,2.204 -1.52,0.912 -3.914,0.912 z m 0.532,-2.774 q 3.23,0 4.522,-1.748 1.33,-1.786 1.33,-5.358 v -0.608 q 0,-3.8 -1.254,-5.814 -1.254,-2.052 -4.636,-2.052 -2.698,0 -4.066,2.166 -1.33,2.128 -1.33,5.738 0,3.648 1.33,5.662 1.368,2.014 4.104,2.014 z M 665.14988,326 h -3.344 v -28.88 h 3.344 z m 4.06799,-20.368 h 3.572 l 4.408,11.59 q 0.57,1.52 1.026,2.926 0.456,1.368 0.684,2.622 h 0.152 q 0.228,-0.95 0.722,-2.47 0.494,-1.558 1.026,-3.116 l 4.142,-11.552 h 3.61 l -8.778,23.18 q -1.064,2.888 -2.774,4.598 -1.672,1.71 -4.636,1.71 -0.912,0 -1.596,-0.114 -0.684,-0.076 -1.178,-0.19 v -2.66 q 0.418,0.076 0.988,0.152 0.608,0.076 1.254,0.076 1.748,0 2.812,-0.988 1.102,-0.988 1.71,-2.622 l 1.064,-2.698 z m 21.35797,18.316 q 0,-1.406 0.684,-1.976 0.684,-0.57 1.634,-0.57 0.988,0 1.672,0.57 0.722,0.57 0.722,1.976 0,1.368 -0.722,1.976 -0.684,0.608 -1.672,0.608 -0.95,0 -1.634,-0.608 -0.684,-0.608 -0.684,-1.976 z m 53.77399,-25.08 -7.22,27.132 h -3.458 l -5.282,-17.784 q -0.304,-1.102 -0.608,-2.204 -0.304,-1.102 -0.494,-1.938 -0.19,-0.874 -0.266,-1.216 -0.038,0.494 -0.418,2.128 -0.342,1.596 -0.874,3.344 l -5.13,17.67 h -3.458 l -7.182,-27.132 h 3.572 l 4.218,16.568 q 0.456,1.748 0.76,3.382 0.342,1.634 0.532,3.078 0.19,-1.482 0.57,-3.23 0.38,-1.748 0.874,-3.42 l 4.788,-16.378 h 3.534 l 4.978,16.492 q 0.532,1.748 0.912,3.496 0.38,1.71 0.57,3.04 0.19,-1.406 0.532,-3.04 0.342,-1.672 0.798,-3.458 l 4.18,-16.53 z m 21.47199,16.91 q 0,5.054 -2.584,7.828 -2.546,2.774 -6.916,2.774 -2.698,0 -4.826,-1.216 -2.09,-1.254 -3.306,-3.61 -1.216,-2.394 -1.216,-5.776 0,-5.054 2.546,-7.79 2.546,-2.736 6.916,-2.736 2.774,0 4.864,1.254 2.128,1.216 3.306,3.572 1.216,2.318 1.216,5.7 z m -15.39,0 q 0,3.61 1.406,5.738 1.444,2.09 4.56,2.09 3.078,0 4.522,-2.09 1.444,-2.128 1.444,-5.738 0,-3.61 -1.444,-5.662 -1.444,-2.052 -4.56,-2.052 -3.116,0 -4.522,2.052 -1.406,2.052 -1.406,5.662 z m 30.97198,-10.526 q 0.57,0 1.216,0.076 0.684,0.038 1.178,0.152 l -0.418,3.078 q -0.494,-0.114 -1.102,-0.19 -0.57,-0.076 -1.102,-0.076 -1.558,0 -2.926,0.874 -1.368,0.836 -2.204,2.394 -0.798,1.52 -0.798,3.572 V 326 h -3.344 v -20.368 h 2.736 l 0.38,3.724 h 0.152 q 0.988,-1.672 2.546,-2.888 1.558,-1.216 3.686,-1.216 z m 10.30002,6.954 q 0,0.608 -0.076,1.596 -0.038,0.988 -0.076,1.71 h 0.152 q 0.228,-0.304 0.684,-0.874 0.456,-0.57 0.912,-1.14 0.494,-0.608 0.836,-0.988 l 6.498,-6.878 h 3.914 l -8.246,8.702 8.816,11.666 h -4.028 l -7.068,-9.5 -2.318,2.014 V 326 h -3.306 v -28.88 h 3.306 z M 823.51385,326 h -3.344 v -28.88 h 3.344 z m 24.96797,-10.222 q 0,5.054 -2.584,7.828 -2.546,2.774 -6.916,2.774 -2.698,0 -4.826,-1.216 -2.09,-1.254 -3.306,-3.61 -1.216,-2.394 -1.216,-5.776 0,-5.054 2.546,-7.79 2.546,-2.736 6.916,-2.736 2.774,0 4.864,1.254 2.128,1.216 3.306,3.572 1.216,2.318 1.216,5.7 z m -15.39,0 q 0,3.61 1.406,5.738 1.444,2.09 4.56,2.09 3.078,0 4.522,-2.09 1.444,-2.128 1.444,-5.738 0,-3.61 -1.444,-5.662 -1.444,-2.052 -4.56,-2.052 -3.116,0 -4.522,2.052 -1.406,2.052 -1.406,5.662 z m 29.64198,10.602 q -2.698,0 -4.826,-1.102 -2.09,-1.102 -3.306,-3.42 -1.178,-2.318 -1.178,-5.928 0,-3.762 1.254,-6.118 1.254,-2.356 3.382,-3.458 2.166,-1.102 4.902,-1.102 1.558,0 3.002,0.342 1.444,0.304 2.356,0.76 l -1.026,2.774 q -0.912,-0.342 -2.128,-0.646 -1.216,-0.304 -2.28,-0.304 -6.004,0 -6.004,7.714 0,3.686 1.444,5.662 1.482,1.938 4.37,1.938 1.672,0 2.926,-0.342 1.292,-0.342 2.356,-0.836 v 2.964 q -1.026,0.532 -2.28,0.798 -1.216,0.304 -2.964,0.304 z m 18.58398,-21.09 q 3.724,0 5.51,1.634 1.786,1.634 1.786,5.206 V 326 h -2.432 l -0.646,-2.888 h -0.152 q -1.33,1.672 -2.812,2.47 -1.444,0.798 -4.028,0.798 -2.774,0 -4.598,-1.444 -1.824,-1.482 -1.824,-4.598 0,-3.04 2.394,-4.674 2.394,-1.672 7.372,-1.824 l 3.458,-0.114 v -1.216 q 0,-2.546 -1.102,-3.534 -1.102,-0.988 -3.116,-0.988 -1.596,0 -3.04,0.494 -1.444,0.456 -2.698,1.064 l -1.026,-2.508 q 1.33,-0.722 3.154,-1.216 1.824,-0.532 3.8,-0.532 z m 0.988,10.868 q -3.8,0.152 -5.282,1.216 -1.444,1.064 -1.444,3.002 0,1.71 1.026,2.508 1.064,0.798 2.698,0.798 2.584,0 4.294,-1.406 1.71,-1.444 1.71,-4.408 v -1.824 z M 899.06582,326 h -3.344 v -28.88 h 3.344 z m 10.60397,0 h -3.344 v -28.88 h 3.344 z m 4.06798,-20.368 h 3.572 l 4.408,11.59 q 0.57,1.52 1.026,2.926 0.456,1.368 0.684,2.622 h 0.152 q 0.228,-0.95 0.722,-2.47 0.494,-1.558 1.026,-3.116 l 4.142,-11.552 h 3.61 l -8.778,23.18 q -1.064,2.888 -2.774,4.598 -1.672,1.71 -4.636,1.71 -0.912,0 -1.596,-0.114 -0.684,-0.076 -1.178,-0.19 v -2.66 q 0.418,0.076 0.988,0.152 0.608,0.076 1.254,0.076 1.748,0 2.812,-0.988 1.102,-0.988 1.71,-2.622 l 1.064,-2.698 z m 21.35797,18.316 q 0,-1.406 0.684,-1.976 0.684,-0.57 1.634,-0.57 0.988,0 1.672,0.57 0.722,0.57 0.722,1.976 0,1.368 -0.722,1.976 -0.684,0.608 -1.672,0.608 -0.95,0 -1.634,-0.608 -0.684,-0.608 -0.684,-1.976 z"
     id="social-tagline"
     style="fill:#dde1e9"
     aria-label="Build boldly. Work locally." />
  <path
     d="m 484.17,390 -2.236,-5.746 h -7.358 L 472.366,390 H 470 l 7.254,-18.642 h 2.106 L 486.588,390 Z m -5.018,-13.442 q -0.078,-0.208 -0.26,-0.754 -0.182,-0.546 -0.364,-1.118 -0.156,-0.598 -0.26,-0.91 -0.182,0.806 -0.416,1.586 -0.234,0.754 -0.39,1.196 l -2.106,5.616 h 5.876 z m 16.38,-0.754 q 2.496,0 3.77,1.222 1.274,1.196 1.274,3.9 V 390 h -2.262 v -8.918 q 0,-3.354 -3.12,-3.354 -2.314,0 -3.198,1.3 -0.884,1.3 -0.884,3.744 V 390 h -2.288 v -13.936 h 1.846 l 0.338,1.898 h 0.13 q 0.676,-1.092 1.872,-1.612 1.196,-0.546 2.522,-0.546 z m 27.76801,0.26 V 390 h -1.872 l -0.338,-1.846 h -0.104 q -0.676,1.092 -1.872,1.612 -1.196,0.494 -2.548,0.494 -2.522,0 -3.796,-1.196 -1.274,-1.222 -1.274,-3.874 v -9.126 h 2.314 v 8.97 q 0,3.328 3.094,3.328 2.314,0 3.198,-1.3 0.91,-1.3 0.91,-3.744 v -7.254 z m 11.128,-0.26 q 2.496,0 3.77,1.222 1.274,1.196 1.274,3.9 V 390 h -2.262 v -8.918 q 0,-3.354 -3.12,-3.354 -2.314,0 -3.198,1.3 -0.884,1.3 -0.884,3.744 V 390 h -2.288 v -13.936 h 1.846 l 0.338,1.898 h 0.13 q 0.676,-1.092 1.872,-1.612 1.196,-0.546 2.522,-0.546 z m 21.47599,7.202 q 0,3.458 -1.768,5.356 -1.742,1.898 -4.732,1.898 -1.846,0 -3.302,-0.832 -1.43,-0.858 -2.262,-2.47 -0.832,-1.638 -0.832,-3.952 0,-3.458 1.742,-5.33 1.742,-1.872 4.732,-1.872 1.898,0 3.328,0.858 1.456,0.832 2.262,2.444 0.832,1.586 0.832,3.9 z m -10.53,0 q 0,2.47 0.962,3.926 0.988,1.43 3.12,1.43 2.106,0 3.094,-1.43 0.988,-1.456 0.988,-3.926 0,-2.47 -0.988,-3.874 -0.988,-1.404 -3.12,-1.404 -2.132,0 -3.094,1.404 -0.962,1.404 -0.962,3.874 z m 20.566,-5.174 h -3.51 V 390 h -2.288 v -12.168 h -2.444 v -1.066 l 2.444,-0.78 v -0.806 q 0,-2.704 1.196,-3.874 1.196,-1.196 3.328,-1.196 0.832,0 1.508,0.156 0.702,0.13 1.196,0.312 l -0.598,1.794 q -0.416,-0.13 -0.962,-0.26 -0.546,-0.13 -1.118,-0.13 -1.144,0 -1.716,0.78 -0.546,0.754 -0.546,2.392 v 0.91 h 3.51 z m 8.944,0 h -3.51 V 390 h -2.288 v -12.168 h -2.444 v -1.066 l 2.444,-0.78 v -0.806 q 0,-2.704 1.196,-3.874 1.196,-1.196 3.328,-1.196 0.832,0 1.508,0.156 0.702,0.13 1.196,0.312 l -0.598,1.794 q -0.416,-0.13 -0.962,-0.26 -0.546,-0.13 -1.118,-0.13 -1.144,0 -1.716,0.78 -0.546,0.754 -0.546,2.392 v 0.91 h 3.51 z m 3.692,-6.994 q 0.52,0 0.91,0.364 0.416,0.338 0.416,1.092 0,0.728 -0.416,1.092 -0.39,0.364 -0.91,0.364 -0.572,0 -0.962,-0.364 -0.39,-0.364 -0.39,-1.092 0,-0.754 0.39,-1.092 0.39,-0.364 0.962,-0.364 z m 1.118,5.226 V 390 h -2.288 v -13.936 z m 10.00998,14.196 q -1.846,0 -3.302,-0.754 -1.43,-0.754 -2.262,-2.34 -0.806,-1.586 -0.806,-4.056 0,-2.574 0.858,-4.186 0.858,-1.612 2.314,-2.366 1.482,-0.754 3.354,-0.754 1.066,0 2.054,0.234 0.988,0.208 1.612,0.52 l -0.702,1.898 q -0.624,-0.234 -1.456,-0.442 -0.832,-0.208 -1.56,-0.208 -4.108,0 -4.108,5.278 0,2.522 0.988,3.874 1.014,1.326 2.99,1.326 1.144,0 2.002,-0.234 0.884,-0.234 1.612,-0.572 v 2.028 q -0.702,0.364 -1.56,0.546 -0.832,0.208 -2.028,0.208 z m 8.05998,-19.422 q 0.52,0 0.91,0.364 0.416,0.338 0.416,1.092 0,0.728 -0.416,1.092 -0.39,0.364 -0.91,0.364 -0.572,0 -0.962,-0.364 -0.39,-0.364 -0.39,-1.092 0,-0.754 0.39,-1.092 0.39,-0.364 0.962,-0.364 z m 1.118,5.226 V 390 h -2.288 v -13.936 z m 9.69799,-0.234 q 2.548,0 3.77,1.118 1.222,1.118 1.222,3.562 V 390 h -1.664 l -0.442,-1.976 h -0.104 q -0.91,1.144 -1.924,1.69 -0.988,0.546 -2.756,0.546 -1.898,0 -3.146,-0.988 -1.248,-1.014 -1.248,-3.146 0,-2.08 1.638,-3.198 1.638,-1.144 5.044,-1.248 l 2.366,-0.078 v -0.832 q 0,-1.742 -0.754,-2.418 -0.754,-0.676 -2.132,-0.676 -1.092,0 -2.08,0.338 -0.988,0.312 -1.846,0.728 l -0.702,-1.716 q 0.91,-0.494 2.158,-0.832 1.248,-0.364 2.6,-0.364 z m 0.676,7.436 q -2.6,0.104 -3.614,0.832 -0.988,0.728 -0.988,2.054 0,1.17 0.702,1.716 0.728,0.546 1.846,0.546 1.768,0 2.938,-0.962 1.17,-0.988 1.17,-3.016 v -1.248 z M 620.17596,390 h -2.288 v -19.76 h 2.288 z m 17.88801,-14.196 q 2.496,0 3.77,1.222 1.274,1.196 1.274,3.9 V 390 h -2.262 v -8.918 q 0,-3.354 -3.12,-3.354 -2.314,0 -3.198,1.3 -0.884,1.3 -0.884,3.744 V 390 h -2.288 v -13.936 h 1.846 l 0.338,1.898 h 0.13 q 0.676,-1.092 1.872,-1.612 1.196,-0.546 2.522,-0.546 z m 14.63799,0.026 q 2.548,0 3.77,1.118 1.222,1.118 1.222,3.562 V 390 h -1.664 l -0.442,-1.976 h -0.104 q -0.91,1.144 -1.924,1.69 -0.988,0.546 -2.756,0.546 -1.898,0 -3.146,-0.988 -1.248,-1.014 -1.248,-3.146 0,-2.08 1.638,-3.198 1.638,-1.144 5.044,-1.248 l 2.366,-0.078 v -0.832 q 0,-1.742 -0.754,-2.418 -0.754,-0.676 -2.132,-0.676 -1.092,0 -2.08,0.338 -0.988,0.312 -1.846,0.728 l -0.702,-1.716 q 0.91,-0.494 2.158,-0.832 1.248,-0.364 2.6,-0.364 z m 0.676,7.436 q -2.6,0.104 -3.614,0.832 -0.988,0.728 -0.988,2.054 0,1.17 0.702,1.716 0.728,0.546 1.846,0.546 1.768,0 2.938,-0.962 1.17,-0.988 1.17,-3.016 v -1.248 z m 13.28603,5.122 q 0.52,0 1.066,-0.078 0.546,-0.104 0.884,-0.208 v 1.742 q -0.364,0.182 -1.04,0.286 -0.676,0.13 -1.3,0.13 -1.092,0 -2.028,-0.364 -0.91,-0.39 -1.482,-1.326 -0.572,-0.936 -0.572,-2.626 v -8.112 h -1.976 v -1.092 l 2.002,-0.91 0.91,-2.964 h 1.352 v 3.198 h 4.03 v 1.768 h -4.03 v 8.06 q 0,1.274 0.598,1.898 0.624,0.598 1.586,0.598 z m 5.90198,-17.55 q 0.52,0 0.91,0.364 0.416,0.338 0.416,1.092 0,0.728 -0.416,1.092 -0.39,0.364 -0.91,0.364 -0.572,0 -0.962,-0.364 -0.39,-0.364 -0.39,-1.092 0,-0.754 0.39,-1.092 0.39,-0.364 0.962,-0.364 z m 1.118,5.226 V 390 h -2.288 v -13.936 z m 7.488,13.936 -5.278,-13.936 h 2.444 l 2.964,8.216 q 0.208,0.572 0.442,1.274 0.234,0.702 0.416,1.352 0.182,0.624 0.26,1.066 h 0.104 q 0.104,-0.442 0.286,-1.092 0.208,-0.65 0.442,-1.352 0.26,-0.702 0.442,-1.248 l 2.964,-8.216 h 2.444 l -5.304,13.936 z m 15.52199,-14.196 q 1.794,0 3.068,0.78 1.3,0.78 1.976,2.21 0.702,1.404 0.702,3.302 v 1.378 h -9.542 q 0.052,2.366 1.196,3.614 1.17,1.222 3.25,1.222 1.326,0 2.34,-0.234 1.04,-0.26 2.132,-0.728 v 2.002 q -1.066,0.468 -2.106,0.676 -1.04,0.234 -2.47,0.234 -1.976,0 -3.51,-0.806 -1.508,-0.806 -2.366,-2.392 -0.832,-1.612 -0.832,-3.926 0,-2.288 0.754,-3.926 0.78,-1.638 2.158,-2.522 1.404,-0.884 3.25,-0.884 z m -0.026,1.872 q -1.638,0 -2.6,1.066 -0.936,1.04 -1.118,2.912 h 7.098 q -0.026,-1.768 -0.832,-2.86 -0.806,-1.118 -2.548,-1.118 z M 713.04794,390 v -18.564 h 2.34 v 16.484 h 8.112 V 390 Z m 14.48199,-19.162 q 0.52,0 0.91,0.364 0.416,0.338 0.416,1.092 0,0.728 -0.416,1.092 -0.39,0.364 -0.91,0.364 -0.572,0 -0.962,-0.364 -0.39,-0.364 -0.39,-1.092 0,-0.754 0.39,-1.092 0.39,-0.364 0.962,-0.364 z m 1.118,5.226 V 390 h -2.288 v -13.936 z m 11.12798,-0.26 q 2.496,0 3.77,1.222 1.274,1.196 1.274,3.9 V 390 h -2.262 v -8.918 q 0,-3.354 -3.12,-3.354 -2.314,0 -3.198,1.3 -0.884,1.3 -0.884,3.744 V 390 h -2.288 v -13.936 h 1.846 l 0.338,1.898 h 0.13 q 0.676,-1.092 1.872,-1.612 1.196,-0.546 2.522,-0.546 z m 21.00802,0.26 V 390 h -1.872 l -0.338,-1.846 h -0.104 q -0.676,1.092 -1.872,1.612 -1.196,0.494 -2.548,0.494 -2.522,0 -3.796,-1.196 -1.274,-1.222 -1.274,-3.874 v -9.126 h 2.314 v 8.97 q 0,3.328 3.094,3.328 2.314,0 3.198,-1.3 0.91,-1.3 0.91,-3.744 v -7.254 z m 7.722,6.812 -4.81,-6.812 h 2.6 l 3.588,5.252 3.562,-5.252 h 2.574 l -4.81,6.812 5.07,7.124 h -2.6 l -3.796,-5.564 -3.848,5.564 h -2.574 z m 26.20797,-0.754 q -0.338,-1.066 -0.598,-2.08 -0.234,-1.04 -0.364,-1.612 h -0.104 q -0.104,0.572 -0.338,1.612 -0.234,1.014 -0.598,2.106 l -2.496,7.826 h -2.6 l -3.822,-13.936 h 2.366 l 1.924,7.436 q 0.286,1.118 0.546,2.262 0.26,1.144 0.364,1.898 h 0.104 q 0.104,-0.442 0.234,-1.092 0.156,-0.65 0.338,-1.352 0.182,-0.728 0.364,-1.3 l 2.47,-7.852 h 2.496 l 2.392,7.852 q 0.286,0.884 0.546,1.924 0.286,1.04 0.39,1.794 h 0.104 q 0.078,-0.65 0.338,-1.794 0.286,-1.144 0.598,-2.34 l 1.95,-7.436 h 2.34 l -3.874,13.936 h -2.678 z m 23.55601,0.884 q 0,3.458 -1.768,5.356 -1.742,1.898 -4.732,1.898 -1.846,0 -3.302,-0.832 -1.43,-0.858 -2.262,-2.47 -0.832,-1.638 -0.832,-3.952 0,-3.458 1.742,-5.33 1.742,-1.872 4.732,-1.872 1.898,0 3.328,0.858 1.456,0.832 2.262,2.444 0.832,1.586 0.832,3.9 z m -10.53,0 q 0,2.47 0.962,3.926 0.988,1.43 3.12,1.43 2.106,0 3.094,-1.43 0.988,-1.456 0.988,-3.926 0,-2.47 -0.988,-3.874 -0.988,-1.404 -3.12,-1.404 -2.132,0 -3.094,1.404 -0.962,1.404 -0.962,3.874 z m 20.64398,-7.202 q 0.39,0 0.832,0.052 0.468,0.026 0.806,0.104 l -0.286,2.106 q -0.338,-0.078 -0.754,-0.13 -0.39,-0.052 -0.754,-0.052 -1.066,0 -2.002,0.598 -0.936,0.572 -1.508,1.638 -0.546,1.04 -0.546,2.444 V 390 h -2.288 v -13.936 h 1.872 l 0.26,2.548 h 0.104 q 0.676,-1.144 1.742,-1.976 1.066,-0.832 2.522,-0.832 z m 6.50001,4.758 q 0,0.416 -0.052,1.092 -0.026,0.676 -0.052,1.17 h 0.104 q 0.156,-0.208 0.468,-0.598 0.312,-0.39 0.624,-0.78 0.338,-0.416 0.572,-0.676 l 4.446,-4.706 h 2.678 l -5.642,5.954 6.032,7.982 h -2.756 l -4.836,-6.5 -1.586,1.378 V 390 h -2.262 v -19.76 h 2.262 z m 20.696,5.59 q 0,2.028 -1.508,3.068 -1.508,1.04 -4.056,1.04 -1.456,0 -2.522,-0.234 -1.04,-0.234 -1.846,-0.65 v -2.08 q 0.832,0.416 2.002,0.78 1.196,0.338 2.418,0.338 1.742,0 2.522,-0.546 0.78,-0.572 0.78,-1.508 0,-0.52 -0.286,-0.936 -0.286,-0.416 -1.04,-0.832 -0.728,-0.416 -2.106,-0.936 -1.352,-0.52 -2.314,-1.04 -0.962,-0.52 -1.482,-1.248 -0.52,-0.728 -0.52,-1.872 0,-1.768 1.43,-2.73 1.456,-0.962 3.796,-0.962 1.274,0 2.366,0.26 1.118,0.234 2.08,0.676 l -0.78,1.82 q -0.884,-0.364 -1.846,-0.624 -0.962,-0.26 -1.976,-0.26 -1.404,0 -2.158,0.468 -0.728,0.442 -0.728,1.222 0,0.572 0.338,0.988 0.338,0.39 1.118,0.78 0.806,0.364 2.132,0.884 1.326,0.494 2.262,1.014 0.936,0.52 1.43,1.274 0.494,0.728 0.494,1.846 z m 10.01001,-10.348 q 2.574,0 4.134,1.794 1.586,1.794 1.586,5.408 0,3.562 -1.586,5.408 -1.56,1.846 -4.16,1.846 -1.612,0 -2.678,-0.598 -1.04,-0.624 -1.638,-1.43 h -0.156 q 0.052,0.442 0.104,1.118 0.052,0.676 0.052,1.17 v 5.72 h -2.288 v -20.176 h 1.872 l 0.312,1.898 h 0.104 q 0.624,-0.91 1.638,-1.534 1.014,-0.624 2.704,-0.624 z m -0.416,1.924 q -2.132,0 -3.016,1.196 -0.858,1.196 -0.91,3.64 v 0.442 q 0,2.574 0.832,3.978 0.858,1.378 3.146,1.378 1.274,0 2.08,-0.702 0.832,-0.702 1.222,-1.898 0.416,-1.222 0.416,-2.782 0,-2.392 -0.936,-3.822 -0.91,-1.43 -2.834,-1.43 z m 15.05399,-1.898 q 2.548,0 3.77,1.118 1.222,1.118 1.222,3.562 V 390 h -1.664 l -0.442,-1.976 h -0.104 q -0.91,1.144 -1.924,1.69 -0.988,0.546 -2.756,0.546 -1.898,0 -3.146,-0.988 -1.248,-1.014 -1.248,-3.146 0,-2.08 1.638,-3.198 1.638,-1.144 5.044,-1.248 l 2.366,-0.078 v -0.832 q 0,-1.742 -0.754,-2.418 -0.754,-0.676 -2.132,-0.676 -1.092,0 -2.08,0.338 -0.988,0.312 -1.846,0.728 l -0.702,-1.716 q 0.91,-0.494 2.158,-0.832 1.248,-0.364 2.6,-0.364 z m 0.676,7.436 q -2.6,0.104 -3.614,0.832 -0.988,0.728 -0.988,2.054 0,1.17 0.702,1.716 0.728,0.546 1.846,0.546 1.768,0 2.938,-0.962 1.17,-0.988 1.17,-3.016 v -1.248 z m 14.22203,6.994 q -1.846,0 -3.302,-0.754 -1.43,-0.754 -2.262,-2.34 -0.806,-1.586 -0.806,-4.056 0,-2.574 0.858,-4.186 0.858,-1.612 2.314,-2.366 1.482,-0.754 3.354,-0.754 1.066,0 2.054,0.234 0.988,0.208 1.612,0.52 l -0.702,1.898 q -0.624,-0.234 -1.456,-0.442 -0.832,-0.208 -1.56,-0.208 -4.108,0 -4.108,5.278 0,2.522 0.988,3.874 1.014,1.326 2.99,1.326 1.144,0 2.002,-0.234 0.884,-0.234 1.612,-0.572 v 2.028 q -0.702,0.364 -1.56,0.546 -0.832,0.208 -2.028,0.208 z m 12.27198,-14.456 q 1.794,0 3.068,0.78 1.3,0.78 1.976,2.21 0.702,1.404 0.702,3.302 v 1.378 h -9.542 q 0.052,2.366 1.196,3.614 1.17,1.222 3.25,1.222 1.326,0 2.34,-0.234 1.04,-0.26 2.132,-0.728 v 2.002 q -1.066,0.468 -2.106,0.676 -1.04,0.234 -2.47,0.234 -1.976,0 -3.51,-0.806 -1.508,-0.806 -2.366,-2.392 -0.832,-1.612 -0.832,-3.926 0,-2.288 0.754,-3.926 0.78,-1.638 2.158,-2.522 1.404,-0.884 3.25,-0.884 z m -0.026,1.872 q -1.638,0 -2.6,1.066 -0.936,1.04 -1.118,2.912 h 7.098 q -0.026,-1.768 -0.832,-2.86 -0.806,-1.118 -2.548,-1.118 z m 22.48998,0.156 h -3.51 V 390 h -2.288 v -12.168 h -2.444 v -1.066 l 2.444,-0.78 v -0.806 q 0,-2.704 1.196,-3.874 1.196,-1.196 3.328,-1.196 0.832,0 1.508,0.156 0.702,0.13 1.196,0.312 l -0.598,1.794 q -0.416,-0.13 -0.962,-0.26 -0.546,-0.13 -1.118,-0.13 -1.144,0 -1.716,0.78 -0.546,0.754 -0.546,2.392 v 0.91 h 3.51 z m 14.638,5.174 q 0,3.458 -1.768,5.356 -1.742,1.898 -4.732,1.898 -1.846,0 -3.302,-0.832 -1.43,-0.858 -2.262,-2.47 -0.832,-1.638 -0.832,-3.952 0,-3.458 1.742,-5.33 1.742,-1.872 4.732,-1.872 1.898,0 3.328,0.858 1.456,0.832 2.262,2.444 0.832,1.586 0.832,3.9 z m -10.53,0 q 0,2.47 0.962,3.926 0.988,1.43 3.12,1.43 2.106,0 3.094,-1.43 0.988,-1.456 0.988,-3.926 0,-2.47 -0.988,-3.874 -0.988,-1.404 -3.12,-1.404 -2.132,0 -3.094,1.404 -0.962,1.404 -0.962,3.874 z m 20.64398,-7.202 q 0.39,0 0.832,0.052 0.468,0.026 0.806,0.104 l -0.286,2.106 q -0.338,-0.078 -0.754,-0.13 -0.39,-0.052 -0.754,-0.052 -1.066,0 -2.002,0.598 -0.936,0.572 -1.508,1.638 -0.546,1.04 -0.546,2.444 V 390 h -2.288 v -13.936 h 1.872 l 0.26,2.548 h 0.104 q 0.676,-1.144 1.742,-1.976 1.066,-0.832 2.522,-0.832 z m 19.26602,-2.574 q -2.99,0 -4.706,2.002 -1.716,2.002 -1.716,5.486 0,3.458 1.586,5.486 1.612,2.002 4.81,2.002 1.222,0 2.314,-0.208 1.092,-0.208 2.132,-0.52 v 2.028 q -1.04,0.39 -2.158,0.572 -1.092,0.182 -2.626,0.182 -2.834,0 -4.732,-1.17 -1.898,-1.17 -2.86,-3.328 -0.936,-2.158 -0.936,-5.07 0,-2.808 1.014,-4.94 1.04,-2.158 3.042,-3.354 2.002,-1.222 4.862,-1.222 2.938,0 5.122,1.092 l -0.936,1.976 q -0.858,-0.39 -1.924,-0.702 -1.04,-0.312 -2.288,-0.312 z m 20.28,9.776 q 0,3.458 -1.768,5.356 -1.742,1.898 -4.732,1.898 -1.846,0 -3.302,-0.832 -1.43,-0.858 -2.262,-2.47 -0.832,-1.638 -0.832,-3.952 0,-3.458 1.742,-5.33 1.742,-1.872 4.732,-1.872 1.898,0 3.328,0.858 1.456,0.832 2.262,2.444 0.832,1.586 0.832,3.9 z m -10.53,0 q 0,2.47 0.962,3.926 0.988,1.43 3.12,1.43 2.106,0 3.094,-1.43 0.988,-1.456 0.988,-3.926 0,-2.47 -0.988,-3.874 -0.988,-1.404 -3.12,-1.404 -2.132,0 -3.094,1.404 -0.962,1.404 -0.962,3.874 z m 19.08391,7.254 q -2.6,0 -4.15996,-1.794 -1.56,-1.82 -1.56,-5.408 0,-3.588 1.56,-5.408 1.58596,-1.846 4.18596,-1.846 1.612,0 2.626,0.598 1.04,0.598 1.69,1.456 h 0.156 q -0.026,-0.338 -0.104,-0.988 -0.052,-0.676 -0.052,-1.066 v -5.564 h 2.288 V 390 h -1.846 l -0.338,-1.872 h -0.104 q -0.624,0.884 -1.664,1.508 -1.04,0.624 -2.678,0.624 z m 0.364,-1.898 q 2.21,0 3.094,-1.196 0.91,-1.222 0.91,-3.666 v -0.416 q 0,-2.6 -0.858,-3.978 -0.858,-1.404 -3.172,-1.404 -1.846,0 -2.782,1.482 -0.90996,1.456 -0.90996,3.926 0,2.496 0.90996,3.874 0.936,1.378 2.808,1.378 z m 16.068,-12.558 q 1.794,0 3.068,0.78 1.3,0.78 1.976,2.21 0.702,1.404 0.702,3.302 v 1.378 h -9.542 q 0.052,2.366 1.196,3.614 1.17,1.222 3.25,1.222 1.326,0 2.34,-0.234 1.04,-0.26 2.132,-0.728 v 2.002 q -1.066,0.468 -2.106,0.676 -1.04,0.234 -2.47,0.234 -1.976,0 -3.51,-0.806 -1.508,-0.806 -2.366,-2.392 -0.832,-1.612 -0.832,-3.926 0,-2.288 0.754,-3.926 0.78,-1.638 2.158,-2.522 1.404,-0.884 3.25,-0.884 z m -0.026,1.872 q -1.638,0 -2.6,1.066 -0.936,1.04 -1.118,2.912 h 7.098 q -0.026,-1.768 -0.832,-2.86 -0.806,-1.118 -2.548,-1.118 z m 12.09,5.2 -4.81,-6.812 h 2.6 l 3.588,5.252 3.562,-5.252 h 2.574 l -4.81,6.812 5.07,7.124 h -2.6 l -3.796,-5.564 -3.848,5.564 h -2.574 z"
     id="social-description"
     style="fill:#aeb7c8"
     aria-label="An unofficial native Linux workspace for Codex" />
  <rect
     x="470"
     y="438"
     width="292"
     height="52"
     rx="26"
     fill="#252E40"
     id="rect6" />
  <circle
     cx="501"
     cy="464"
     r="7"
     fill="#FF7142"
     id="circle6" />
  <path
     d="m 538.104,467.952 q 0,1.776 -0.792,3.216 -0.768,1.416 -2.352,2.256 -1.56,0.816 -3.96,0.816 -3.408,0 -5.184,-1.728 -1.776,-1.752 -1.776,-4.608 v -11.04 h 3.624 v 10.488 q 0,2.112 0.864,2.976 0.864,0.864 2.568,0.864 1.776,0 2.568,-0.936 0.816,-0.936 0.816,-2.928 v -10.464 h 3.624 z M 558.69601,474 h -4.608 l -7.464,-12.96 h -0.096 q 0.048,1.224 0.096,2.448 0.072,1.224 0.12,2.448 V 474 h -3.24 v -17.136 h 4.584 l 7.44,12.84 h 0.072 q -0.024,-1.2 -0.072,-2.376 -0.048,-1.176 -0.096,-2.352 v -8.112 h 3.264 z m 21.072,-8.592 q 0,2.664 -0.888,4.656 -0.864,1.968 -2.664,3.072 -1.8,1.104 -4.608,1.104 -2.784,0 -4.608,-1.104 -1.8,-1.104 -2.688,-3.096 -0.864,-1.992 -0.864,-4.656 0,-2.664 0.864,-4.632 0.888,-1.968 2.688,-3.048 1.824,-1.104 4.632,-1.104 2.784,0 4.584,1.104 1.8,1.08 2.664,3.072 0.888,1.968 0.888,4.632 z m -12.504,0 q 0,2.688 1.032,4.248 1.032,1.536 3.312,1.536 2.328,0 3.336,-1.536 1.008,-1.56 1.008,-4.248 0,-2.712 -1.008,-4.248 -1.008,-1.536 -3.312,-1.536 -2.304,0 -3.336,1.536 -1.032,1.536 -1.032,4.248 z M 588.09599,474 h -3.576 v -17.136 h 9.816 v 2.976 h -6.24 v 4.416 h 5.808 v 2.976 h -5.808 z m 14.376,0 h -3.576 v -17.136 h 9.816 v 2.976 h -6.24 v 4.416 h 5.808 v 2.976 h -5.808 z m 17.20799,0 h -7.8 v -2.064 l 2.088,-0.96 v -11.088 l -2.088,-0.96 v -2.064 h 7.8 v 2.064 l -2.088,0.96 v 11.088 l 2.088,0.96 z m 11.4,-14.352 q -2.088,0 -3.192,1.56 -1.104,1.56 -1.104,4.272 0,2.736 1.008,4.248 1.032,1.488 3.288,1.488 1.056,0 2.088,-0.24 1.056,-0.24 2.28,-0.672 v 3.048 q -1.128,0.456 -2.232,0.672 -1.104,0.216 -2.472,0.216 -2.64,0 -4.368,-1.08 -1.704,-1.104 -2.52,-3.072 -0.816,-1.992 -0.816,-4.632 0,-2.592 0.936,-4.584 0.936,-1.992 2.712,-3.12 1.8,-1.128 4.392,-1.128 1.272,0 2.544,0.336 1.296,0.312 2.472,0.864 l -1.176,2.952 q -0.96,-0.456 -1.944,-0.792 -0.96,-0.336 -1.896,-0.336 z M 646.70396,474 h -7.8 v -2.064 l 2.088,-0.96 v -11.088 l -2.088,-0.96 v -2.064 h 7.8 v 2.064 l -2.088,0.96 v 11.088 l 2.088,0.96 z m 14.616,0 -1.248,-4.08 h -6.24 l -1.248,4.08 h -3.912 l 6.048,-17.208 h 4.44 l 6.072,17.208 z m -3.36,-11.112 q -0.12,-0.408 -0.312,-1.032 -0.192,-0.624 -0.384,-1.272 -0.192,-0.648 -0.312,-1.128 -0.12,0.48 -0.336,1.2 -0.192,0.696 -0.384,1.344 -0.168,0.624 -0.264,0.888 l -1.224,3.984 h 4.464 z M 668.59198,474 v -17.136 h 3.624 V 471 h 6.96 v 3 z m 27.67201,-17.136 q 3.312,0 4.824,1.44 1.536,1.416 1.536,3.912 0,1.488 -0.624,2.808 -0.624,1.296 -2.088,2.088 -1.44,0.792 -3.936,0.792 h -1.56 V 474 h -3.624 v -17.136 z m -0.192,2.976 h -1.656 v 5.088 h 1.2 q 1.536,0 2.424,-0.6 0.912,-0.624 0.912,-1.992 0,-2.496 -2.88,-2.496 z m 15.984,-2.976 q 3.504,0 5.16,1.272 1.68,1.272 1.68,3.864 0,1.176 -0.456,2.064 -0.432,0.864 -1.176,1.488 -0.72,0.6 -1.56,0.984 l 5.04,7.464 h -4.032 l -4.08,-6.576 h -1.944 V 474 h -3.624 v -17.136 z m -0.264,2.976 h -1.104 v 4.632 h 1.176 q 1.8,0 2.568,-0.6 0.792,-0.6 0.792,-1.776 0,-1.224 -0.84,-1.728 -0.816,-0.528 -2.592,-0.528 z m 27.86401,5.568 q 0,2.664 -0.888,4.656 -0.864,1.968 -2.664,3.072 -1.8,1.104 -4.608,1.104 -2.784,0 -4.608,-1.104 -1.8,-1.104 -2.688,-3.096 -0.864,-1.992 -0.864,-4.656 0,-2.664 0.864,-4.632 0.888,-1.968 2.688,-3.048 1.824,-1.104 4.632,-1.104 2.784,0 4.584,1.104 1.8,1.08 2.664,3.072 0.888,1.968 0.888,4.632 z m -12.504,0 q 0,2.688 1.032,4.248 1.032,1.536 3.312,1.536 2.328,0 3.336,-1.536 1.008,-1.56 1.008,-4.248 0,-2.712 -1.008,-4.248 -1.008,-1.536 -3.312,-1.536 -2.304,0 -3.336,1.536 -1.032,1.536 -1.032,4.248 z m 15.45599,13.632 q -0.696,0 -1.224,-0.096 -0.528,-0.072 -0.912,-0.168 v -3.024 q 0.384,0.096 0.816,0.168 0.408,0.072 0.888,0.072 0.624,0 1.128,-0.24 0.528,-0.24 0.816,-0.912 0.288,-0.672 0.288,-1.92 v -16.056 h 3.624 v 16.032 q 0,2.208 -0.696,3.552 -0.672,1.368 -1.896,1.968 -1.224,0.624 -2.832,0.624 z M 763.41597,474 h -9.864 v -17.136 h 9.864 v 2.976 h -6.24 v 3.768 h 5.808 v 2.976 h -5.808 V 471 h 6.24 z m 12.04798,-14.352 q -2.088,0 -3.192,1.56 -1.104,1.56 -1.104,4.272 0,2.736 1.008,4.248 1.032,1.488 3.288,1.488 1.056,0 2.088,-0.24 1.056,-0.24 2.28,-0.672 v 3.048 q -1.128,0.456 -2.232,0.672 -1.104,0.216 -2.472,0.216 -2.64,0 -4.368,-1.08 -1.704,-1.104 -2.52,-3.072 -0.816,-1.992 -0.816,-4.632 0,-2.592 0.936,-4.584 0.936,-1.992 2.712,-3.12 1.8,-1.128 4.392,-1.128 1.272,0 2.544,0.336 1.296,0.312 2.472,0.864 l -1.176,2.952 q -0.96,-0.456 -1.944,-0.792 -0.96,-0.336 -1.896,-0.336 z M 791.27993,474 h -3.624 v -14.112 h -4.656 v -3.024 h 12.936 v 3.024 h -4.656 z"
     id="social-status"
     style="fill:#f6f1e7"
     aria-label="UNOFFICIAL PROJECT" />
</svg>
