<?xml version="1.0" encoding="UTF-8" standalone="no"?>
<svg
   width="1240"
   height="360"
   viewBox="0 0 1240 360"
   role="img"
   aria-labelledby="title desc"
   version="1.1"
   id="svg4"
   xmlns="http://www.w3.org/2000/svg"
   xmlns:svg="http://www.w3.org/2000/svg">
  <defs
     id="defs4" />
  <title
     id="title">QuireForge horizontal lockup for dark backgrounds</title>
  <desc
     id="desc">The light QuireForge mark, name, and Build boldly. Work locally. tagline.</desc>
  <g
     transform="translate(24 24) scale(.609375)"
     id="g3">
    <path
       fill="#F6F1E7"
       fill-rule="evenodd"
       d="M152 32h208l120 120v208l-58 58 58 58-62 36-70-70-54 38H152L32 360V152L152 32Zm18 118v162l86 32 86-32V150l-86 26-86-26Z"
       id="path1" />
    <path
       fill="#FF7142"
       d="m274 306 206 170-62 36-170-162 26-44Z"
       id="path2" />
    <path
       fill="#FF7142"
       d="m256 176 18-5v135l-18 38V176Z"
       id="path3" />
  </g>
  <g
     id="lockup-dark-wordmark"
     style="fill:#f6f1e7"
     aria-label="QuireForge">
    <path
       d="m 491.224,135.016 q 0,17.76 -6.364,30.784 -6.364,12.876 -19.684,18.944 l 25.456,28.416 H 461.92 l -19.388,-23.68 h -1.628 q -17.168,0 -28.416,-6.808 -11.1,-6.808 -16.576,-19.092 -5.328,-12.284 -5.328,-28.712 0,-16.428 5.328,-28.564 5.476,-12.136 16.576,-18.796 11.248,-6.808 28.564,-6.808 17.168,0 28.268,6.808 11.1,6.66 16.428,18.944 5.476,12.136 5.476,28.564 z m -77.108,0 q 0,16.576 6.364,26.196 6.364,9.472 20.424,9.472 14.356,0 20.572,-9.472 6.216,-9.62 6.216,-26.196 0,-16.724 -6.216,-26.196 -6.216,-9.472 -20.424,-9.472 -14.208,0 -20.572,9.472 -6.364,9.472 -6.364,26.196 z M 580.49993,107.192 V 188 h -16.872 l -2.96,-10.36 h -1.184 q -3.848,6.216 -10.656,9.028 -6.66,2.812 -14.208,2.812 -13.024,0 -20.868,-6.956 -7.844,-7.104 -7.844,-22.644 v -52.688 h 22.052 v 47.212 q 0,8.584 3.108,13.024 3.108,4.44 9.916,4.44 10.064,0 13.764,-6.808 3.7,-6.956 3.7,-19.832 V 107.192 Z M 609.68787,75.52 q 4.884,0 8.436,2.368 3.552,2.22 3.552,8.436 0,6.068 -3.552,8.436 -3.552,2.368 -8.436,2.368 -5.032,0 -8.584,-2.368 -3.404,-2.368 -3.404,-8.436 0,-6.216 3.404,-8.436 3.552,-2.368 8.584,-2.368 z m 10.952,31.672 V 188 h -22.052 v -80.808 z m 63.22804,-1.48 q 1.628,0 3.848,0.148 2.22,0.148 3.552,0.444 l -1.628,20.72 q -1.036,-0.296 -3.108,-0.444 -1.924,-0.296 -3.404,-0.296 -5.624,0 -10.804,2.072 -5.18,1.924 -8.436,6.364 -3.108,4.44 -3.108,12.136 V 188 h -22.052 v -80.808 h 16.724 l 3.256,13.616 h 1.036 q 3.552,-6.216 9.768,-10.656 6.216,-4.44 14.356,-4.44 z m 47.39201,0 q 16.724,0 26.492,9.62 9.768,9.472 9.768,27.084 v 10.656 h -52.096 q 0.296,9.324 5.476,14.652 5.328,5.328 14.652,5.328 7.844,0 14.208,-1.48 6.364,-1.628 13.172,-4.884 v 17.02 q -5.92,2.96 -12.58,4.292 -6.512,1.48 -15.836,1.48 -12.136,0 -21.46,-4.44 -9.324,-4.588 -14.652,-13.764 -5.328,-9.176 -5.328,-23.088 0,-14.208 4.736,-23.532 4.884,-9.472 13.468,-14.208 8.584,-4.736 19.98,-4.736 z m 0.148,15.688 q -6.364,0 -10.656,4.144 -4.144,4.144 -4.884,12.876 h 30.932 q -0.148,-7.4 -3.848,-12.136 -3.7,-4.884 -11.544,-4.884 z"
       id="path4" />
    <path
       style="fill:#ff7142"
       d="m 804.25585,188 h -22.052 V 82.328 h 60.532 v 18.352 h -38.48 v 27.232 h 35.816 v 18.352 h -35.816 z m 125.83198,-40.552 q 0,20.128 -10.656,31.08 -10.508,10.952 -28.712,10.952 -11.248,0 -20.128,-4.884 -8.732,-4.884 -13.764,-14.208 -5.032,-9.472 -5.032,-22.94 0,-20.128 10.508,-30.932 10.508,-10.804 28.86,-10.804 11.396,0 20.128,4.884 8.732,4.884 13.764,14.208 5.032,9.176 5.032,22.644 z m -55.796,0 q 0,11.988 3.848,18.204 3.996,6.068 12.876,6.068 8.732,0 12.58,-6.068 3.996,-6.216 3.996,-18.204 0,-11.988 -3.996,-17.908 -3.848,-6.068 -12.728,-6.068 -8.732,0 -12.728,6.068 -3.848,5.92 -3.848,17.908 z m 114.13991,-41.736 q 1.628,0 3.848,0.148 2.22,0.148 3.552,0.444 l -1.628,20.72 q -1.036,-0.296 -3.108,-0.444 -1.924,-0.296 -3.404,-0.296 -5.624,0 -10.804,2.072 -5.18,1.924 -8.436,6.364 -3.108,4.44 -3.108,12.136 V 188 h -22.052 v -80.808 h 16.724 l 3.256,13.616 h 1.036 q 3.552,-6.216 9.768,-10.656 6.216,-4.44 14.356,-4.44 z m 41.76806,0 q 14.948,0 23.384,11.84 h 0.592 l 1.776,-10.36 h 18.648 v 80.956 q 0,17.316 -10.212,26.344 -10.212,9.028 -30.192,9.028 -8.584,0 -15.984,-1.036 -7.252,-1.036 -14.208,-3.7 v -17.612 q 14.948,6.216 31.524,6.216 17.02,0 17.02,-18.352 v -1.628 q 0,-2.516 0.148,-5.18 0.296,-2.664 0.444,-4.736 h -0.592 q -4.144,6.364 -9.916,9.176 -5.772,2.812 -13.024,2.812 -14.356,0 -22.496,-10.952 -7.99202,-11.1 -7.99202,-30.784 0,-19.832 8.28802,-30.932 8.288,-11.1 22.792,-11.1 z m 6.956,17.908 q -15.54,0 -15.54,24.42 0,24.124 15.836,24.124 8.436,0 12.432,-4.736 4.144,-4.884 4.144,-16.872 v -2.664 q 0,-13.024 -3.996,-18.648 -3.996,-5.624 -12.876,-5.624 z m 88.8319,-17.908 q 16.724,0 26.492,9.62 9.768,9.472 9.768,27.084 v 10.656 h -52.096 q 0.296,9.324 5.476,14.652 5.328,5.328 14.652,5.328 7.844,0 14.208,-1.48 6.364,-1.628 13.172,-4.884 v 17.02 q -5.92,2.96 -12.58,4.292 -6.512,1.48 -15.836,1.48 -12.136,0 -21.46,-4.44 -9.324,-4.588 -14.652,-13.764 -5.328,-9.176 -5.328,-23.088 0,-14.208 4.736,-23.532 4.884,-9.472 13.468,-14.208 8.584,-4.736 19.98,-4.736 z m 0.148,15.688 q -6.364,0 -10.656,4.144 -4.144,4.144 -4.884,12.876 h 30.932 q -0.148,-7.4 -3.848,-12.136 -3.7,-4.884 -11.544,-4.884 z"
       id="path5" />
  </g>
  <path
     d="m 402.642,238.012 q 5.628,0 8.484,1.68 2.898,1.638 2.898,5.754 0,2.646 -1.47,4.41 -1.47,1.722 -4.242,2.226 v 0.21 q 1.89,0.294 3.402,1.092 1.554,0.798 2.436,2.268 0.882,1.47 0.882,3.822 0,4.074 -2.814,6.3 -2.772,2.226 -7.602,2.226 h -10.542 v -29.988 z m 0.756,12.768 q 3.864,0 5.292,-1.218 1.428,-1.26 1.428,-3.696 0,-2.478 -1.764,-3.528 -1.722,-1.092 -5.544,-1.092 h -4.956 v 9.534 z m -5.544,3.15 v 10.878 h 6.048 q 3.99,0 5.544,-1.554 Q 411,261.7 411,259.18 q 0,-2.352 -1.638,-3.78 -1.596,-1.47 -5.754,-1.47 z m 43.33198,-8.442 V 268 h -3.024 l -0.546,-2.982 h -0.168 q -1.092,1.764 -3.024,2.604 -1.932,0.798 -4.116,0.798 -4.074,0 -6.132,-1.932 -2.058,-1.974 -2.058,-6.258 v -14.742 h 3.738 v 14.49 q 0,5.376 4.998,5.376 3.738,0 5.166,-2.1 1.47,-2.1 1.47,-6.048 v -11.718 z m 10.53001,-8.442 q 0.84,0 1.47,0.588 0.672,0.546 0.672,1.764 0,1.176 -0.672,1.764 -0.63,0.588 -1.47,0.588 -0.924,0 -1.554,-0.588 -0.63,-0.588 -0.63,-1.764 0,-1.218 0.63,-1.764 0.63,-0.588 1.554,-0.588 z m 1.806,8.442 V 268 h -3.696 V 245.488 Z M 465.85796,268 h -3.696 v -31.92 h 3.696 z m 16.61997,0.42 q -4.2,0 -6.72,-2.898 -2.52,-2.94 -2.52,-8.736 0,-5.796 2.52,-8.736 2.562,-2.982 6.762,-2.982 2.604,0 4.242,0.966 1.68,0.966 2.73,2.352 h 0.252 q -0.042,-0.546 -0.168,-1.596 -0.084,-1.092 -0.084,-1.722 v -8.988 h 3.696 V 268 h -2.982 l -0.546,-3.024 h -0.168 q -1.008,1.428 -2.688,2.436 -1.68,1.008 -4.326,1.008 z m 0.588,-3.066 q 3.57,0 4.998,-1.932 1.47,-1.974 1.47,-5.922 v -0.672 q 0,-4.2 -1.386,-6.426 -1.386,-2.268 -5.124,-2.268 -2.982,0 -4.494,2.394 -1.47,2.352 -1.47,6.342 0,4.032 1.47,6.258 1.512,2.226 4.536,2.226 z m 34.878,-21.504 q 0,1.428 -0.084,2.688 -0.042,1.218 -0.126,1.932 h 0.21 q 0.966,-1.428 2.646,-2.394 1.68,-0.966 4.326,-0.966 4.2,0 6.72,2.94 2.562,2.898 2.562,8.694 0,5.796 -2.562,8.736 -2.562,2.94 -6.72,2.94 -2.646,0 -4.326,-0.966 -1.68,-0.966 -2.646,-2.31 h -0.294 l -0.756,2.856 h -2.646 v -31.92 h 3.696 z m 6.342,4.326 q -3.57,0 -4.956,2.058 -1.386,2.058 -1.386,6.384 v 0.168 q 0,4.158 1.344,6.384 1.386,2.184 5.082,2.184 3.024,0 4.494,-2.226 1.512,-2.226 1.512,-6.426 0,-8.526 -6.09,-8.526 z m 36.864,8.526 q 0,5.586 -2.856,8.652 -2.814,3.066 -7.644,3.066 -2.982,0 -5.334,-1.344 -2.31,-1.386 -3.654,-3.99 -1.344,-2.646 -1.344,-6.384 0,-5.586 2.814,-8.61 2.814,-3.024 7.644,-3.024 3.066,0 5.376,1.386 2.352,1.344 3.654,3.948 1.344,2.562 1.344,6.3 z m -17.01,0 q 0,3.99 1.554,6.342 1.596,2.31 5.04,2.31 3.402,0 4.998,-2.31 1.596,-2.352 1.596,-6.342 0,-3.99 -1.596,-6.258 -1.596,-2.268 -5.04,-2.268 -3.444,0 -4.998,2.268 -1.554,2.268 -1.554,6.258 z M 572.18391,268 h -3.696 v -31.92 h 3.696 z m 16.61997,0.42 q -4.2,0 -6.72,-2.898 -2.52,-2.94 -2.52,-8.736 0,-5.796 2.52,-8.736 2.562,-2.982 6.762,-2.982 2.604,0 4.242,0.966 1.68,0.966 2.73,2.352 h 0.252 q -0.042,-0.546 -0.168,-1.596 -0.084,-1.092 -0.084,-1.722 v -8.988 h 3.696 V 268 h -2.982 l -0.546,-3.024 h -0.168 q -1.008,1.428 -2.688,2.436 -1.68,1.008 -4.326,1.008 z m 0.588,-3.066 q 3.57,0 4.998,-1.932 1.47,-1.974 1.47,-5.922 v -0.672 q 0,-4.2 -1.386,-6.426 -1.386,-2.268 -5.124,-2.268 -2.982,0 -4.494,2.394 -1.47,2.352 -1.47,6.342 0,4.032 1.47,6.258 1.512,2.226 4.536,2.226 z m 22.458,2.646 h -3.696 v -31.92 h 3.696 z m 5.11197,-22.512 h 3.948 l 4.872,12.81 q 0.63,1.68 1.134,3.234 0.504,1.512 0.756,2.898 h 0.168 q 0.252,-1.05 0.798,-2.73 0.546,-1.722 1.134,-3.444 l 4.578,-12.768 h 3.99 l -9.702,25.62 q -1.176,3.192 -3.066,5.082 -1.848,1.89 -5.124,1.89 -1.008,0 -1.764,-0.126 -0.756,-0.084 -1.302,-0.21 v -2.94 q 0.462,0.084 1.092,0.168 0.672,0.084 1.386,0.084 1.932,0 3.108,-1.092 1.218,-1.092 1.89,-2.898 l 1.176,-2.982 z m 24.22197,20.244 q 0,-1.554 0.756,-2.184 0.756,-0.63 1.806,-0.63 1.092,0 1.848,0.63 0.798,0.63 0.798,2.184 0,1.512 -0.798,2.184 -0.756,0.672 -1.848,0.672 -1.05,0 -1.806,-0.672 -0.756,-0.672 -0.756,-2.184 z m 60.666,-27.72 -7.98,29.988 h -3.822 l -5.838,-19.656 q -0.336,-1.218 -0.672,-2.436 -0.336,-1.218 -0.546,-2.142 -0.21,-0.966 -0.294,-1.344 -0.042,0.546 -0.462,2.352 -0.378,1.764 -0.966,3.696 l -5.67,19.53 h -3.822 l -7.938,-29.988 h 3.948 l 4.662,18.312 q 0.504,1.932 0.84,3.738 0.378,1.806 0.588,3.402 0.21,-1.638 0.63,-3.57 0.42,-1.932 0.966,-3.78 l 5.292,-18.102 h 3.906 l 5.502,18.228 q 0.588,1.932 1.008,3.864 0.42,1.89 0.63,3.36 0.21,-1.554 0.588,-3.36 0.378,-1.848 0.882,-3.822 l 4.62,-18.27 z m 24.348,18.69 q 0,5.586 -2.856,8.652 -2.814,3.066 -7.644,3.066 -2.982,0 -5.334,-1.344 -2.31,-1.386 -3.654,-3.99 -1.344,-2.646 -1.344,-6.384 0,-5.586 2.814,-8.61 2.814,-3.024 7.644,-3.024 3.066,0 5.376,1.386 2.352,1.344 3.654,3.948 1.344,2.562 1.344,6.3 z m -17.01,0 q 0,3.99 1.554,6.342 1.596,2.31 5.04,2.31 3.402,0 4.998,-2.31 1.596,-2.352 1.596,-6.342 0,-3.99 -1.596,-6.258 -1.596,-2.268 -5.04,-2.268 -3.444,0 -4.998,2.268 -1.554,2.268 -1.554,6.258 z m 34.84797,-11.634 q 0.63,0 1.344,0.084 0.756,0.042 1.302,0.168 l -0.462,3.402 q -0.546,-0.126 -1.218,-0.21 -0.63,-0.084 -1.218,-0.084 -1.722,0 -3.234,0.966 -1.512,0.924 -2.436,2.646 -0.882,1.68 -0.882,3.948 V 268 h -3.696 v -22.512 h 3.024 l 0.42,4.116 h 0.168 q 1.092,-1.848 2.814,-3.192 1.722,-1.344 4.074,-1.344 z m 12.00001,7.686 q 0,0.672 -0.084,1.764 -0.042,1.092 -0.084,1.89 h 0.168 q 0.252,-0.336 0.756,-0.966 0.504,-0.63 1.008,-1.26 0.546,-0.672 0.924,-1.092 l 7.182,-7.602 h 4.326 l -9.114,9.618 9.744,12.894 h -4.452 l -7.812,-10.5 -2.562,2.226 V 268 h -3.654 v -31.92 h 3.654 z M 792.42582,268 h -3.696 v -31.92 h 3.696 z m 28.21197,-11.298 q 0,5.586 -2.856,8.652 -2.814,3.066 -7.644,3.066 -2.982,0 -5.334,-1.344 -2.31,-1.386 -3.654,-3.99 -1.344,-2.646 -1.344,-6.384 0,-5.586 2.814,-8.61 2.814,-3.024 7.644,-3.024 3.066,0 5.376,1.386 2.352,1.344 3.654,3.948 1.344,2.562 1.344,6.3 z m -17.01,0 q 0,3.99 1.554,6.342 1.596,2.31 5.04,2.31 3.402,0 4.998,-2.31 1.596,-2.352 1.596,-6.342 0,-3.99 -1.596,-6.258 -1.596,-2.268 -5.04,-2.268 -3.444,0 -4.998,2.268 -1.554,2.268 -1.554,6.258 z m 33.37797,11.718 q -2.982,0 -5.334,-1.218 -2.31,-1.218 -3.654,-3.78 -1.302,-2.562 -1.302,-6.552 0,-4.158 1.386,-6.762 1.386,-2.604 3.738,-3.822 2.394,-1.218 5.418,-1.218 1.722,0 3.318,0.378 1.596,0.336 2.604,0.84 l -1.134,3.066 q -1.008,-0.378 -2.352,-0.714 -1.344,-0.336 -2.52,-0.336 -6.636,0 -6.636,8.526 0,4.074 1.596,6.258 1.638,2.142 4.83,2.142 1.848,0 3.234,-0.378 1.428,-0.378 2.604,-0.924 v 3.276 q -1.134,0.588 -2.52,0.882 -1.344,0.336 -3.276,0.336 z m 21.15601,-23.31 q 4.116,0 6.09,1.806 1.974,1.806 1.974,5.754 V 268 h -2.688 l -0.714,-3.192 h -0.168 q -1.47,1.848 -3.108,2.73 -1.596,0.882 -4.452,0.882 -3.066,0 -5.082,-1.596 -2.016,-1.638 -2.016,-5.082 0,-3.36 2.646,-5.166 2.646,-1.848 8.148,-2.016 l 3.822,-0.126 v -1.344 q 0,-2.814 -1.218,-3.906 -1.218,-1.092 -3.444,-1.092 -1.764,0 -3.36,0.546 -1.596,0.504 -2.982,1.176 l -1.134,-2.772 q 1.47,-0.798 3.486,-1.344 2.016,-0.588 4.2,-0.588 z m 1.092,12.012 q -4.2,0.168 -5.838,1.344 -1.596,1.176 -1.596,3.318 0,1.89 1.134,2.772 1.176,0.882 2.982,0.882 2.856,0 4.746,-1.554 1.89,-1.596 1.89,-4.872 v -2.016 z M 878.39381,268 h -3.696 v -31.92 h 3.696 z m 12.33597,0 h -3.696 v -31.92 h 3.696 z m 5.11196,-22.512 h 3.948 l 4.872,12.81 q 0.63,1.68 1.134,3.234 0.504,1.512 0.756,2.898 h 0.168 q 0.252,-1.05 0.798,-2.73 0.546,-1.722 1.134,-3.444 l 4.578,-12.768 h 3.99 l -9.702,25.62 q -1.176,3.192 -3.066,5.082 -1.848,1.89 -5.124,1.89 -1.008,0 -1.764,-0.126 -0.756,-0.084 -1.302,-0.21 v -2.94 q 0.462,0.084 1.092,0.168 0.672,0.084 1.386,0.084 1.932,0 3.108,-1.092 1.218,-1.092 1.89,-2.898 l 1.176,-2.982 z m 24.22199,20.244 q 0,-1.554 0.756,-2.184 0.756,-0.63 1.806,-0.63 1.092,0 1.848,0.63 0.798,0.63 0.798,2.184 0,1.512 -0.798,2.184 -0.756,0.672 -1.848,0.672 -1.05,0 -1.806,-0.672 -0.756,-0.672 -0.756,-2.184 z"
     id="lockup-dark-tagline"
     style="fill:#bac1cf"
     aria-label="Build boldly. Work locally." />
</svg>
